<svg width="16" height="16" viewBox="0 0 16 16" fill="none" xmlns="http://www.w3.org/2000/svg">
<path fill-rule="evenodd" clip-rule="evenodd" d="M15.1668 12.0003V4.66699C15.1668 3.56242 14.2714 2.66699 13.1668 2.66699L2.83349 2.667C1.72893 2.667 0.833496 3.56243 0.833496 4.667V12.0003C0.833496 13.1049 1.72893 14.0003 2.8335 14.0003L13.1668 14.0003C14.2714 14.0003 15.1668 13.1049 15.1668 12.0003ZM13.8335 6.1733V12.0003C13.8335 12.3685 13.535 12.667 13.1668 12.667L2.8335 12.667C2.46531 12.667 2.16683 12.3685 2.16683 12.0003L2.16683 6.17321L6.87561 9.37518C7.55433 9.83671 8.44613 9.83671 9.12485 9.37518L13.8335 6.1733ZM13.8259 4.56607C13.7773 4.24577 13.5007 4.00032 13.1668 4.00033L2.83349 4.00034C2.49965 4.00034 2.22311 4.24573 2.17443 4.56599L7.62535 8.27261C7.85159 8.42646 8.14886 8.42646 8.3751 8.27261L13.8259 4.56607Z" fill="white"/>
</svg>
